<svg width="24" height="24" viewBox="0 0 24 24" fill="none" xmlns="http://www.w3.org/2000/svg">
<path d="M12 4.29995C12.4418 4.29995 12.8 3.94178 12.8 3.49995C12.8 3.05812 12.4418 2.69995 12 2.69995C11.5581 2.69995 11.2 3.05812 11.2 3.49995C11.2 3.94178 11.5581 4.29995 12 4.29995Z" fill="#7C3AED"/>
<path d="M12 4.29995C12.4418 4.29995 12.8 3.94178 12.8 3.49995C12.8 3.05812 12.4418 2.69995 12 2.69995C11.5581 2.69995 11.2 3.05812 11.2 3.49995C11.2 3.94178 11.5581 4.29995 12 4.29995Z" fill="#7C3AED"/>
<path d="M19 3H14.8C14.4 1.8 13.3 1 12 1C10.7 1 9.6 1.8 9.2 3H5C4.9 3 4.7 3 4.6 3C4.2 3.1 3.9 3.3 3.6 3.5C3.4 3.8 3.3 4 3.2 4.2C3.1 4.5 3 4.7 3 5V19C3 19.3 3.1 19.5 3.2 19.8C3.3 20 3.4 20.3 3.6 20.4C3.9 20.7 4.2 20.9 4.6 20.9C4.7 20.9 4.9 20.9 5 20.9H19C20.1 20.9 21 20 21 18.9V5C21 3.9 20.1 3 19 3ZM11 14.2L9.6 15.6L6 12L9.6 8.4L11 9.8L8.8 12L11 14.2ZM12 4.2C11.6 4.2 11.2 3.9 11.2 3.4C11.2 2.9 11.5 2.6 12 2.6C12.5 2.6 12.8 2.9 12.8 3.4C12.8 3.9 12.4 4.2 12 4.2ZM14.4 15.6L13 14.2L15.2 12L13 9.8L14.4 8.4L18 12L14.4 15.6Z" fill="#7C3AED"/>
</svg>
